<svg width="144" height="144" viewBox="0 0 144 144" fill="none" xmlns="http://www.w3.org/2000/svg">
<path d="M64.6465 15.0637V57.5637C64.6465 65.3908 50.3736 71.7304 32.7715 71.7304C15.1694 71.7304 0.896484 65.3908 0.896484 57.5637V15.0637" stroke="white" stroke-width="1.79388" stroke-linecap="round" stroke-linejoin="round"/>
<path d="M64.6465 36.3137C64.6465 44.1408 50.3736 50.4804 32.7715 50.4804C15.1694 50.4804 0.896484 44.1408 0.896484 36.3137" stroke="white" stroke-width="1.79388" stroke-linecap="round" stroke-linejoin="round"/>
<path d="M64.6465 15.0636C64.6465 22.8907 50.3736 29.2303 32.7715 29.2303C15.1694 29.2303 0.896484 22.8907 0.896484 15.0636C0.896484 7.23656 15.1694 0.896973 32.7715 0.896973C50.3736 0.896973 64.6465 7.23656 64.6465 15.0636Z" fill="#14F195" fill-opacity="0.5" stroke="white" stroke-width="1.79388" stroke-linecap="round" stroke-linejoin="round"/>
<path d="M100.063 7.98035H121.313C125.07 7.98035 128.673 9.4729 131.33 12.1297C133.987 14.7864 135.479 18.3898 135.479 22.147V43.397M43.3962 135.48H22.1462C18.3889 135.48 14.7856 133.988 12.1288 131.331C9.47205 128.674 7.97949 125.071 7.97949 121.314V100.064" stroke="white" stroke-width="1.79388" stroke-linecap="round" stroke-linejoin="round"/>
<path d="M110.688 107.147C120.468 107.147 128.396 99.2187 128.396 89.4387C128.396 79.6586 120.468 71.7303 110.688 71.7303C100.908 71.7303 92.9795 79.6586 92.9795 89.4387C92.9795 99.2187 100.908 107.147 110.688 107.147Z" fill="#14F195" fill-opacity="0.5" stroke="white" stroke-width="1.79388" stroke-linecap="round" stroke-linejoin="round"/>
<path d="M142.562 142.564H78.8125C78.8125 138.378 79.637 134.233 81.2388 130.366C82.8407 126.498 85.1886 122.985 88.1485 120.025C91.1083 117.065 94.6222 114.717 98.4895 113.115C102.357 111.513 106.502 110.689 110.688 110.689C114.873 110.689 119.018 111.513 122.886 113.115C126.753 114.717 130.267 117.065 133.227 120.025C136.186 122.985 138.534 126.498 140.136 130.366C141.738 134.233 142.562 138.378 142.562 142.564Z" fill="#14F195" fill-opacity="0.5" stroke="white" stroke-width="1.79388" stroke-linecap="round" stroke-linejoin="round"/>
</svg>
