<svg width="131" height="131" viewBox="0 0 131 131" fill="none" xmlns="http://www.w3.org/2000/svg">
<path d="M51.3333 95.6193C63.5556 95.6193 73.9444 91.3269 82.5 82.742C91.0556 74.1571 95.3333 63.734 95.3333 51.4727C95.3333 39.2113 91.0556 28.7882 82.5 20.2033C73.9444 11.6184 63.5556 7.32845 51.3333 7.33334C39.1111 7.33823 28.7222 11.6307 20.1667 20.2107C11.6111 28.7907 7.33333 39.2113 7.33333 51.4727C7.33333 63.734 11.6111 74.1571 20.1667 82.742C28.7222 91.3269 39.1111 95.6193 51.3333 95.6193ZM51.3333 70.3707C50.2871 70.3707 49.4144 70.0187 48.7153 69.3147C48.0162 68.6107 47.6667 67.7404 47.6667 66.704V30.3233C47.6667 29.282 48.0187 28.4093 48.7227 27.7053C49.4267 27.0013 50.2993 26.6518 51.3407 26.6567C52.382 26.6616 53.2522 27.0111 53.9513 27.7053C54.6504 28.3996 55 29.2722 55 30.3233V66.704C55 67.7453 54.648 68.618 53.944 69.322C53.24 70.026 52.3673 70.3756 51.326 70.3707M26.7887 70.3707C25.7522 70.3707 24.882 70.0211 24.178 69.322C23.4789 68.618 23.1293 67.7453 23.1293 66.704V44.2933C23.1293 43.252 23.4813 42.3793 24.1853 41.6753C24.8893 40.9713 25.762 40.6218 26.8033 40.6267C27.8447 40.6316 28.7149 40.9811 29.414 41.6753C30.1131 42.3696 30.4627 43.2422 30.4627 44.2933V66.7113C30.4627 67.7527 30.1107 68.6253 29.4067 69.3293C28.7027 70.0285 27.83 70.378 26.7887 70.378M75.8707 70.378C74.8293 70.378 73.9591 70.0285 73.26 69.3293C72.5609 68.6302 72.2089 67.7576 72.204 66.7113V51.3333C72.204 50.292 72.556 49.4218 73.26 48.7227C73.964 48.0187 74.8367 47.6667 75.878 47.6667C76.9193 47.6667 77.7896 48.0187 78.4887 48.7227C79.1878 49.4267 79.5373 50.2969 79.5373 51.3333V66.704C79.5373 67.7453 79.1853 68.6156 78.4813 69.3147C77.7773 70.0138 76.9071 70.3658 75.8707 70.3707M51.3333 102.667C37.004 102.667 24.8649 97.6971 14.916 87.758C4.972 77.814 0 65.6798 0 51.3553C0 37.0309 4.972 24.8918 14.916 14.938C24.86 4.98423 36.9918 0.00489249 51.3113 3.60183e-06C65.6309 -0.00488529 77.7724 4.96711 87.736 14.916C97.6898 24.8698 102.667 37.0089 102.667 51.3333C102.667 57.772 101.55 63.866 99.3153 69.6153C97.0811 75.3647 94.0109 80.4638 90.1047 84.9127L129.551 124.359C130.235 125.014 130.577 125.845 130.577 126.852C130.577 127.859 130.235 128.734 129.551 129.477C128.866 130.22 128.001 130.563 126.955 130.504C125.908 130.445 125.043 130.079 124.359 129.404L85.052 90.0973C80.5102 94.0084 75.3647 97.0811 69.6153 99.3153C63.866 101.55 57.772 102.667 51.3333 102.667Z" fill="url(#paint0_linear_1139_281)"/>
<defs>
<linearGradient id="paint0_linear_1139_281" x1="65.2887" y1="0" x2="65.2887" y2="130.51" gradientUnits="userSpaceOnUse">
<stop stop-color="#31B27C"/>
<stop offset="1" stop-color="#154C35"/>
</linearGradient>
</defs>
</svg>
